<mxfile host="Electron" modified="2023-06-28T09:35:58.408Z" agent="Mozilla/5.0 (Windows NT 10.0; Win64; x64) AppleWebKit/537.36 (KHTML, like Gecko) draw.io/21.5.1 Chrome/112.0.5615.204 Electron/24.6.0 Safari/537.36" etag="8SejKeMvXMyhLueMsfNS" version="21.5.1" type="device">
  <diagram name="第 1 页" id="DRtzcMf0K8NbrGitpg0K">
    <mxGraphModel dx="2610" dy="1894" grid="1" gridSize="10" guides="1" tooltips="1" connect="1" arrows="1" fold="1" page="1" pageScale="1" pageWidth="1169" pageHeight="827" math="0" shadow="0">
      <root>
        <mxCell id="0" />
        <mxCell id="1" parent="0" />
        <mxCell id="0VWRR3ivwJFSbnxhWq9w-2" value="S" style="rounded=1;whiteSpace=wrap;html=1;fontFamily=Times New Roman;fontSize=20;fillColor=#f8cecc;strokeColor=#b85450;" vertex="1" parent="1">
          <mxGeometry x="80" y="270" width="40" height="40" as="geometry" />
        </mxCell>
        <mxCell id="0VWRR3ivwJFSbnxhWq9w-3" value="addr:&amp;nbsp; 8&amp;nbsp; data: 8，singal write" style="text;html=1;strokeColor=none;fillColor=none;align=left;verticalAlign=middle;whiteSpace=wrap;rounded=0;fontFamily=Times New Roman;fontSize=20;" vertex="1" parent="1">
          <mxGeometry x="80" y="230" width="280" height="40" as="geometry" />
        </mxCell>
        <mxCell id="0VWRR3ivwJFSbnxhWq9w-4" value="" style="rounded=1;whiteSpace=wrap;html=1;fontFamily=Times New Roman;fontSize=20;fillColor=#d5e8d4;strokeColor=#82b366;" vertex="1" parent="1">
          <mxGeometry x="82" y="190" width="80" height="40" as="geometry" />
        </mxCell>
        <mxCell id="0VWRR3ivwJFSbnxhWq9w-5" value="" style="rounded=1;whiteSpace=wrap;html=1;fontFamily=Times New Roman;fontSize=20;fillColor=#f8cecc;strokeColor=#b85450;" vertex="1" parent="1">
          <mxGeometry x="202" y="190" width="80" height="40" as="geometry" />
        </mxCell>
        <mxCell id="0VWRR3ivwJFSbnxhWq9w-6" value="Slave" style="text;html=1;strokeColor=none;fillColor=none;align=center;verticalAlign=middle;whiteSpace=wrap;rounded=0;fontFamily=Times New Roman;fontSize=20;" vertex="1" parent="1">
          <mxGeometry x="82" y="150" width="80" height="40" as="geometry" />
        </mxCell>
        <mxCell id="0VWRR3ivwJFSbnxhWq9w-7" value="Master" style="text;html=1;strokeColor=none;fillColor=none;align=center;verticalAlign=middle;whiteSpace=wrap;rounded=0;fontFamily=Times New Roman;fontSize=20;" vertex="1" parent="1">
          <mxGeometry x="202" y="150" width="80" height="40" as="geometry" />
        </mxCell>
        <mxCell id="0VWRR3ivwJFSbnxhWq9w-8" value="device_id" style="rounded=1;whiteSpace=wrap;html=1;fontFamily=Times New Roman;fontSize=20;fillColor=#f8cecc;strokeColor=#b85450;" vertex="1" parent="1">
          <mxGeometry x="120" y="270" width="160" height="40" as="geometry" />
        </mxCell>
        <mxCell id="0VWRR3ivwJFSbnxhWq9w-9" value="7bit" style="text;html=1;strokeColor=none;fillColor=none;align=center;verticalAlign=middle;whiteSpace=wrap;rounded=0;fontFamily=Times New Roman;fontSize=20;" vertex="1" parent="1">
          <mxGeometry x="120" y="310" width="160" height="40" as="geometry" />
        </mxCell>
        <mxCell id="0VWRR3ivwJFSbnxhWq9w-10" value="0" style="rounded=1;whiteSpace=wrap;html=1;fontFamily=Times New Roman;fontSize=20;fillColor=#f8cecc;strokeColor=#b85450;" vertex="1" parent="1">
          <mxGeometry x="280" y="270" width="40" height="40" as="geometry" />
        </mxCell>
        <mxCell id="0VWRR3ivwJFSbnxhWq9w-11" value="1bit" style="text;html=1;strokeColor=none;fillColor=none;align=center;verticalAlign=middle;whiteSpace=wrap;rounded=0;fontFamily=Times New Roman;fontSize=20;" vertex="1" parent="1">
          <mxGeometry x="280" y="310" width="40" height="40" as="geometry" />
        </mxCell>
        <mxCell id="0VWRR3ivwJFSbnxhWq9w-13" value="A" style="rounded=1;whiteSpace=wrap;html=1;fontFamily=Times New Roman;fontSize=20;fillColor=#d5e8d4;strokeColor=#82b366;" vertex="1" parent="1">
          <mxGeometry x="320" y="270" width="40" height="40" as="geometry" />
        </mxCell>
        <mxCell id="0VWRR3ivwJFSbnxhWq9w-14" value="reg_addr" style="rounded=1;whiteSpace=wrap;html=1;fontFamily=Times New Roman;fontSize=20;fillColor=#f8cecc;strokeColor=#b85450;" vertex="1" parent="1">
          <mxGeometry x="360" y="270" width="160" height="40" as="geometry" />
        </mxCell>
        <mxCell id="0VWRR3ivwJFSbnxhWq9w-15" value="8bit" style="text;html=1;strokeColor=none;fillColor=none;align=center;verticalAlign=middle;whiteSpace=wrap;rounded=0;fontFamily=Times New Roman;fontSize=20;" vertex="1" parent="1">
          <mxGeometry x="360" y="310" width="160" height="40" as="geometry" />
        </mxCell>
        <mxCell id="0VWRR3ivwJFSbnxhWq9w-16" value="1bit" style="text;html=1;strokeColor=none;fillColor=none;align=center;verticalAlign=middle;whiteSpace=wrap;rounded=0;fontFamily=Times New Roman;fontSize=20;" vertex="1" parent="1">
          <mxGeometry x="320" y="310" width="40" height="40" as="geometry" />
        </mxCell>
        <mxCell id="0VWRR3ivwJFSbnxhWq9w-17" value="A" style="rounded=1;whiteSpace=wrap;html=1;fontFamily=Times New Roman;fontSize=20;fillColor=#d5e8d4;strokeColor=#82b366;" vertex="1" parent="1">
          <mxGeometry x="520" y="270" width="40" height="40" as="geometry" />
        </mxCell>
        <mxCell id="0VWRR3ivwJFSbnxhWq9w-18" value="1bit" style="text;html=1;strokeColor=none;fillColor=none;align=center;verticalAlign=middle;whiteSpace=wrap;rounded=0;fontFamily=Times New Roman;fontSize=20;" vertex="1" parent="1">
          <mxGeometry x="520" y="310" width="40" height="40" as="geometry" />
        </mxCell>
        <mxCell id="0VWRR3ivwJFSbnxhWq9w-19" value="data" style="rounded=1;whiteSpace=wrap;html=1;fontFamily=Times New Roman;fontSize=20;fillColor=#f8cecc;strokeColor=#b85450;" vertex="1" parent="1">
          <mxGeometry x="560" y="270" width="160" height="40" as="geometry" />
        </mxCell>
        <mxCell id="0VWRR3ivwJFSbnxhWq9w-20" value="8bit" style="text;html=1;strokeColor=none;fillColor=none;align=center;verticalAlign=middle;whiteSpace=wrap;rounded=0;fontFamily=Times New Roman;fontSize=20;" vertex="1" parent="1">
          <mxGeometry x="560" y="310" width="160" height="40" as="geometry" />
        </mxCell>
        <mxCell id="0VWRR3ivwJFSbnxhWq9w-21" value="A" style="rounded=1;whiteSpace=wrap;html=1;fontFamily=Times New Roman;fontSize=20;fillColor=#d5e8d4;strokeColor=#82b366;" vertex="1" parent="1">
          <mxGeometry x="720" y="270" width="40" height="40" as="geometry" />
        </mxCell>
        <mxCell id="0VWRR3ivwJFSbnxhWq9w-22" value="1bit" style="text;html=1;strokeColor=none;fillColor=none;align=center;verticalAlign=middle;whiteSpace=wrap;rounded=0;fontFamily=Times New Roman;fontSize=20;" vertex="1" parent="1">
          <mxGeometry x="720" y="310" width="40" height="40" as="geometry" />
        </mxCell>
        <mxCell id="0VWRR3ivwJFSbnxhWq9w-23" value="E" style="rounded=1;whiteSpace=wrap;html=1;fontFamily=Times New Roman;fontSize=20;fillColor=#f8cecc;strokeColor=#b85450;" vertex="1" parent="1">
          <mxGeometry x="760" y="270" width="40" height="40" as="geometry" />
        </mxCell>
        <mxCell id="0VWRR3ivwJFSbnxhWq9w-24" value="S" style="rounded=1;whiteSpace=wrap;html=1;fontFamily=Times New Roman;fontSize=20;fillColor=#f8cecc;strokeColor=#b85450;" vertex="1" parent="1">
          <mxGeometry x="80" y="390" width="40" height="40" as="geometry" />
        </mxCell>
        <mxCell id="0VWRR3ivwJFSbnxhWq9w-25" value="addr:&amp;nbsp; 8&amp;nbsp; data: 8，sequent write" style="text;html=1;strokeColor=none;fillColor=none;align=left;verticalAlign=middle;whiteSpace=wrap;rounded=0;fontFamily=Times New Roman;fontSize=20;" vertex="1" parent="1">
          <mxGeometry x="80" y="350" width="280" height="40" as="geometry" />
        </mxCell>
        <mxCell id="0VWRR3ivwJFSbnxhWq9w-26" value="device_id" style="rounded=1;whiteSpace=wrap;html=1;fontFamily=Times New Roman;fontSize=20;fillColor=#f8cecc;strokeColor=#b85450;" vertex="1" parent="1">
          <mxGeometry x="120" y="390" width="160" height="40" as="geometry" />
        </mxCell>
        <mxCell id="0VWRR3ivwJFSbnxhWq9w-27" value="7bit" style="text;html=1;strokeColor=none;fillColor=none;align=center;verticalAlign=middle;whiteSpace=wrap;rounded=0;fontFamily=Times New Roman;fontSize=20;" vertex="1" parent="1">
          <mxGeometry x="120" y="430" width="160" height="40" as="geometry" />
        </mxCell>
        <mxCell id="0VWRR3ivwJFSbnxhWq9w-28" value="0" style="rounded=1;whiteSpace=wrap;html=1;fontFamily=Times New Roman;fontSize=20;fillColor=#f8cecc;strokeColor=#b85450;" vertex="1" parent="1">
          <mxGeometry x="280" y="390" width="40" height="40" as="geometry" />
        </mxCell>
        <mxCell id="0VWRR3ivwJFSbnxhWq9w-29" value="1bit" style="text;html=1;strokeColor=none;fillColor=none;align=center;verticalAlign=middle;whiteSpace=wrap;rounded=0;fontFamily=Times New Roman;fontSize=20;" vertex="1" parent="1">
          <mxGeometry x="280" y="430" width="40" height="40" as="geometry" />
        </mxCell>
        <mxCell id="0VWRR3ivwJFSbnxhWq9w-30" value="A" style="rounded=1;whiteSpace=wrap;html=1;fontFamily=Times New Roman;fontSize=20;fillColor=#d5e8d4;strokeColor=#82b366;" vertex="1" parent="1">
          <mxGeometry x="320" y="390" width="40" height="40" as="geometry" />
        </mxCell>
        <mxCell id="0VWRR3ivwJFSbnxhWq9w-31" value="reg_addr" style="rounded=1;whiteSpace=wrap;html=1;fontFamily=Times New Roman;fontSize=20;fillColor=#f8cecc;strokeColor=#b85450;" vertex="1" parent="1">
          <mxGeometry x="360" y="390" width="160" height="40" as="geometry" />
        </mxCell>
        <mxCell id="0VWRR3ivwJFSbnxhWq9w-32" value="8bit" style="text;html=1;strokeColor=none;fillColor=none;align=center;verticalAlign=middle;whiteSpace=wrap;rounded=0;fontFamily=Times New Roman;fontSize=20;" vertex="1" parent="1">
          <mxGeometry x="360" y="430" width="160" height="40" as="geometry" />
        </mxCell>
        <mxCell id="0VWRR3ivwJFSbnxhWq9w-33" value="1bit" style="text;html=1;strokeColor=none;fillColor=none;align=center;verticalAlign=middle;whiteSpace=wrap;rounded=0;fontFamily=Times New Roman;fontSize=20;" vertex="1" parent="1">
          <mxGeometry x="320" y="430" width="40" height="40" as="geometry" />
        </mxCell>
        <mxCell id="0VWRR3ivwJFSbnxhWq9w-34" value="A" style="rounded=1;whiteSpace=wrap;html=1;fontFamily=Times New Roman;fontSize=20;fillColor=#d5e8d4;strokeColor=#82b366;" vertex="1" parent="1">
          <mxGeometry x="520" y="390" width="40" height="40" as="geometry" />
        </mxCell>
        <mxCell id="0VWRR3ivwJFSbnxhWq9w-35" value="1bit" style="text;html=1;strokeColor=none;fillColor=none;align=center;verticalAlign=middle;whiteSpace=wrap;rounded=0;fontFamily=Times New Roman;fontSize=20;" vertex="1" parent="1">
          <mxGeometry x="520" y="430" width="40" height="40" as="geometry" />
        </mxCell>
        <mxCell id="0VWRR3ivwJFSbnxhWq9w-36" value="data" style="rounded=1;whiteSpace=wrap;html=1;fontFamily=Times New Roman;fontSize=20;fillColor=#f8cecc;strokeColor=#b85450;" vertex="1" parent="1">
          <mxGeometry x="560" y="390" width="160" height="40" as="geometry" />
        </mxCell>
        <mxCell id="0VWRR3ivwJFSbnxhWq9w-37" value="8bit" style="text;html=1;strokeColor=none;fillColor=none;align=center;verticalAlign=middle;whiteSpace=wrap;rounded=0;fontFamily=Times New Roman;fontSize=20;" vertex="1" parent="1">
          <mxGeometry x="560" y="430" width="160" height="40" as="geometry" />
        </mxCell>
        <mxCell id="0VWRR3ivwJFSbnxhWq9w-38" value="A" style="rounded=1;whiteSpace=wrap;html=1;fontFamily=Times New Roman;fontSize=20;fillColor=#d5e8d4;strokeColor=#82b366;" vertex="1" parent="1">
          <mxGeometry x="720" y="390" width="40" height="40" as="geometry" />
        </mxCell>
        <mxCell id="0VWRR3ivwJFSbnxhWq9w-39" value="1bit" style="text;html=1;strokeColor=none;fillColor=none;align=center;verticalAlign=middle;whiteSpace=wrap;rounded=0;fontFamily=Times New Roman;fontSize=20;" vertex="1" parent="1">
          <mxGeometry x="720" y="430" width="40" height="40" as="geometry" />
        </mxCell>
        <mxCell id="0VWRR3ivwJFSbnxhWq9w-40" value="E" style="rounded=1;whiteSpace=wrap;html=1;fontFamily=Times New Roman;fontSize=20;fillColor=#f8cecc;strokeColor=#b85450;" vertex="1" parent="1">
          <mxGeometry x="1120" y="390" width="40" height="40" as="geometry" />
        </mxCell>
        <mxCell id="0VWRR3ivwJFSbnxhWq9w-41" value="A" style="rounded=1;whiteSpace=wrap;html=1;fontFamily=Times New Roman;fontSize=20;" vertex="1" parent="1">
          <mxGeometry x="322" y="190" width="40" height="40" as="geometry" />
        </mxCell>
        <mxCell id="0VWRR3ivwJFSbnxhWq9w-42" value="A为应答位，低电平" style="text;html=1;strokeColor=none;fillColor=none;align=center;verticalAlign=middle;whiteSpace=wrap;rounded=0;fontFamily=Times New Roman;fontSize=20;" vertex="1" parent="1">
          <mxGeometry x="322" y="150" width="200" height="40" as="geometry" />
        </mxCell>
        <mxCell id="0VWRR3ivwJFSbnxhWq9w-43" value="data" style="rounded=1;whiteSpace=wrap;html=1;fontFamily=Times New Roman;fontSize=20;fillColor=#f8cecc;strokeColor=#b85450;" vertex="1" parent="1">
          <mxGeometry x="840" y="390" width="160" height="40" as="geometry" />
        </mxCell>
        <mxCell id="0VWRR3ivwJFSbnxhWq9w-44" value="8bit" style="text;html=1;strokeColor=none;fillColor=none;align=center;verticalAlign=middle;whiteSpace=wrap;rounded=0;fontFamily=Times New Roman;fontSize=20;" vertex="1" parent="1">
          <mxGeometry x="840" y="430" width="160" height="40" as="geometry" />
        </mxCell>
        <mxCell id="0VWRR3ivwJFSbnxhWq9w-45" value="A" style="rounded=1;whiteSpace=wrap;html=1;fontFamily=Times New Roman;fontSize=20;fillColor=#d5e8d4;strokeColor=#82b366;" vertex="1" parent="1">
          <mxGeometry x="1000" y="390" width="40" height="40" as="geometry" />
        </mxCell>
        <mxCell id="0VWRR3ivwJFSbnxhWq9w-46" value="1bit" style="text;html=1;strokeColor=none;fillColor=none;align=center;verticalAlign=middle;whiteSpace=wrap;rounded=0;fontFamily=Times New Roman;fontSize=20;" vertex="1" parent="1">
          <mxGeometry x="1000" y="430" width="40" height="40" as="geometry" />
        </mxCell>
        <mxCell id="0VWRR3ivwJFSbnxhWq9w-47" value="" style="endArrow=none;dashed=1;html=1;rounded=0;exitX=1;exitY=0;exitDx=0;exitDy=0;entryX=0;entryY=0;entryDx=0;entryDy=0;" edge="1" parent="1" source="0VWRR3ivwJFSbnxhWq9w-38" target="0VWRR3ivwJFSbnxhWq9w-43">
          <mxGeometry width="50" height="50" relative="1" as="geometry">
            <mxPoint x="820" y="370" as="sourcePoint" />
            <mxPoint x="870" y="320" as="targetPoint" />
          </mxGeometry>
        </mxCell>
        <mxCell id="0VWRR3ivwJFSbnxhWq9w-48" value="" style="endArrow=none;dashed=1;html=1;rounded=0;exitX=1;exitY=0;exitDx=0;exitDy=0;entryX=0;entryY=0;entryDx=0;entryDy=0;" edge="1" parent="1">
          <mxGeometry width="50" height="50" relative="1" as="geometry">
            <mxPoint x="760" y="429" as="sourcePoint" />
            <mxPoint x="840" y="429" as="targetPoint" />
          </mxGeometry>
        </mxCell>
        <mxCell id="0VWRR3ivwJFSbnxhWq9w-49" value="" style="endArrow=none;dashed=1;html=1;rounded=0;exitX=1;exitY=0;exitDx=0;exitDy=0;entryX=0;entryY=0;entryDx=0;entryDy=0;" edge="1" parent="1">
          <mxGeometry width="50" height="50" relative="1" as="geometry">
            <mxPoint x="1040" y="390" as="sourcePoint" />
            <mxPoint x="1120" y="390" as="targetPoint" />
          </mxGeometry>
        </mxCell>
        <mxCell id="0VWRR3ivwJFSbnxhWq9w-50" value="" style="endArrow=none;dashed=1;html=1;rounded=0;exitX=1;exitY=0;exitDx=0;exitDy=0;entryX=0;entryY=0;entryDx=0;entryDy=0;" edge="1" parent="1">
          <mxGeometry width="50" height="50" relative="1" as="geometry">
            <mxPoint x="1040" y="429" as="sourcePoint" />
            <mxPoint x="1120" y="429" as="targetPoint" />
          </mxGeometry>
        </mxCell>
        <mxCell id="0VWRR3ivwJFSbnxhWq9w-51" value="S" style="rounded=1;whiteSpace=wrap;html=1;fontFamily=Times New Roman;fontSize=20;fillColor=#f8cecc;strokeColor=#b85450;" vertex="1" parent="1">
          <mxGeometry x="81" y="550" width="40" height="40" as="geometry" />
        </mxCell>
        <mxCell id="0VWRR3ivwJFSbnxhWq9w-52" value="addr:&amp;nbsp; 8&amp;nbsp; data: 8，singal read，只读一次，master不应答" style="text;html=1;strokeColor=none;fillColor=none;align=left;verticalAlign=middle;whiteSpace=wrap;rounded=0;fontFamily=Times New Roman;fontSize=20;" vertex="1" parent="1">
          <mxGeometry x="81" y="510" width="629" height="40" as="geometry" />
        </mxCell>
        <mxCell id="0VWRR3ivwJFSbnxhWq9w-53" value="device_id" style="rounded=1;whiteSpace=wrap;html=1;fontFamily=Times New Roman;fontSize=20;fillColor=#f8cecc;strokeColor=#b85450;" vertex="1" parent="1">
          <mxGeometry x="121" y="550" width="160" height="40" as="geometry" />
        </mxCell>
        <mxCell id="0VWRR3ivwJFSbnxhWq9w-54" value="7bit" style="text;html=1;strokeColor=none;fillColor=none;align=center;verticalAlign=middle;whiteSpace=wrap;rounded=0;fontFamily=Times New Roman;fontSize=20;" vertex="1" parent="1">
          <mxGeometry x="121" y="590" width="160" height="40" as="geometry" />
        </mxCell>
        <mxCell id="0VWRR3ivwJFSbnxhWq9w-55" value="0" style="rounded=1;whiteSpace=wrap;html=1;fontFamily=Times New Roman;fontSize=20;fillColor=#f8cecc;strokeColor=#b85450;" vertex="1" parent="1">
          <mxGeometry x="281" y="550" width="40" height="40" as="geometry" />
        </mxCell>
        <mxCell id="0VWRR3ivwJFSbnxhWq9w-56" value="1bit" style="text;html=1;strokeColor=none;fillColor=none;align=center;verticalAlign=middle;whiteSpace=wrap;rounded=0;fontFamily=Times New Roman;fontSize=20;" vertex="1" parent="1">
          <mxGeometry x="281" y="590" width="40" height="40" as="geometry" />
        </mxCell>
        <mxCell id="0VWRR3ivwJFSbnxhWq9w-57" value="A" style="rounded=1;whiteSpace=wrap;html=1;fontFamily=Times New Roman;fontSize=20;fillColor=#d5e8d4;strokeColor=#82b366;" vertex="1" parent="1">
          <mxGeometry x="321" y="550" width="40" height="40" as="geometry" />
        </mxCell>
        <mxCell id="0VWRR3ivwJFSbnxhWq9w-58" value="reg_addr" style="rounded=1;whiteSpace=wrap;html=1;fontFamily=Times New Roman;fontSize=20;fillColor=#f8cecc;strokeColor=#b85450;" vertex="1" parent="1">
          <mxGeometry x="361" y="550" width="160" height="40" as="geometry" />
        </mxCell>
        <mxCell id="0VWRR3ivwJFSbnxhWq9w-59" value="8bit" style="text;html=1;strokeColor=none;fillColor=none;align=center;verticalAlign=middle;whiteSpace=wrap;rounded=0;fontFamily=Times New Roman;fontSize=20;" vertex="1" parent="1">
          <mxGeometry x="361" y="590" width="160" height="40" as="geometry" />
        </mxCell>
        <mxCell id="0VWRR3ivwJFSbnxhWq9w-60" value="1bit" style="text;html=1;strokeColor=none;fillColor=none;align=center;verticalAlign=middle;whiteSpace=wrap;rounded=0;fontFamily=Times New Roman;fontSize=20;" vertex="1" parent="1">
          <mxGeometry x="321" y="590" width="40" height="40" as="geometry" />
        </mxCell>
        <mxCell id="0VWRR3ivwJFSbnxhWq9w-61" value="A" style="rounded=1;whiteSpace=wrap;html=1;fontFamily=Times New Roman;fontSize=20;fillColor=#d5e8d4;strokeColor=#82b366;" vertex="1" parent="1">
          <mxGeometry x="521" y="550" width="40" height="40" as="geometry" />
        </mxCell>
        <mxCell id="0VWRR3ivwJFSbnxhWq9w-62" value="1bit" style="text;html=1;strokeColor=none;fillColor=none;align=center;verticalAlign=middle;whiteSpace=wrap;rounded=0;fontFamily=Times New Roman;fontSize=20;" vertex="1" parent="1">
          <mxGeometry x="521" y="590" width="40" height="40" as="geometry" />
        </mxCell>
        <mxCell id="0VWRR3ivwJFSbnxhWq9w-65" value="1A" style="rounded=1;whiteSpace=wrap;html=1;fontFamily=Times New Roman;fontSize=20;fillColor=#f8cecc;strokeColor=#b85450;" vertex="1" parent="1">
          <mxGeometry x="1000" y="550" width="40" height="40" as="geometry" />
        </mxCell>
        <mxCell id="0VWRR3ivwJFSbnxhWq9w-67" value="E" style="rounded=1;whiteSpace=wrap;html=1;fontFamily=Times New Roman;fontSize=20;fillColor=#f8cecc;strokeColor=#b85450;" vertex="1" parent="1">
          <mxGeometry x="1040" y="550" width="40" height="40" as="geometry" />
        </mxCell>
        <mxCell id="0VWRR3ivwJFSbnxhWq9w-68" value="S" style="rounded=1;whiteSpace=wrap;html=1;fontFamily=Times New Roman;fontSize=20;fillColor=#f8cecc;strokeColor=#b85450;" vertex="1" parent="1">
          <mxGeometry x="561" y="550" width="40" height="40" as="geometry" />
        </mxCell>
        <mxCell id="0VWRR3ivwJFSbnxhWq9w-69" value="device_id" style="rounded=1;whiteSpace=wrap;html=1;fontFamily=Times New Roman;fontSize=20;fillColor=#f8cecc;strokeColor=#b85450;" vertex="1" parent="1">
          <mxGeometry x="601" y="550" width="160" height="40" as="geometry" />
        </mxCell>
        <mxCell id="0VWRR3ivwJFSbnxhWq9w-70" value="7bit" style="text;html=1;strokeColor=none;fillColor=none;align=center;verticalAlign=middle;whiteSpace=wrap;rounded=0;fontFamily=Times New Roman;fontSize=20;" vertex="1" parent="1">
          <mxGeometry x="601" y="590" width="160" height="40" as="geometry" />
        </mxCell>
        <mxCell id="0VWRR3ivwJFSbnxhWq9w-71" value="1" style="rounded=1;whiteSpace=wrap;html=1;fontFamily=Times New Roman;fontSize=20;fillColor=#f8cecc;strokeColor=#b85450;" vertex="1" parent="1">
          <mxGeometry x="761" y="550" width="40" height="40" as="geometry" />
        </mxCell>
        <mxCell id="0VWRR3ivwJFSbnxhWq9w-72" value="1bit" style="text;html=1;strokeColor=none;fillColor=none;align=center;verticalAlign=middle;whiteSpace=wrap;rounded=0;fontFamily=Times New Roman;fontSize=20;" vertex="1" parent="1">
          <mxGeometry x="761" y="590" width="40" height="40" as="geometry" />
        </mxCell>
        <mxCell id="0VWRR3ivwJFSbnxhWq9w-73" value="A" style="rounded=1;whiteSpace=wrap;html=1;fontFamily=Times New Roman;fontSize=20;fillColor=#d5e8d4;strokeColor=#82b366;" vertex="1" parent="1">
          <mxGeometry x="800" y="550" width="40" height="40" as="geometry" />
        </mxCell>
        <mxCell id="0VWRR3ivwJFSbnxhWq9w-74" value="1bit" style="text;html=1;strokeColor=none;fillColor=none;align=center;verticalAlign=middle;whiteSpace=wrap;rounded=0;fontFamily=Times New Roman;fontSize=20;" vertex="1" parent="1">
          <mxGeometry x="800" y="590" width="40" height="40" as="geometry" />
        </mxCell>
        <mxCell id="0VWRR3ivwJFSbnxhWq9w-75" value="data" style="rounded=1;whiteSpace=wrap;html=1;fontFamily=Times New Roman;fontSize=20;fillColor=#d5e8d4;strokeColor=#82b366;" vertex="1" parent="1">
          <mxGeometry x="840" y="550" width="160" height="40" as="geometry" />
        </mxCell>
        <mxCell id="0VWRR3ivwJFSbnxhWq9w-76" value="8bit" style="text;html=1;strokeColor=none;fillColor=none;align=center;verticalAlign=middle;whiteSpace=wrap;rounded=0;fontFamily=Times New Roman;fontSize=20;" vertex="1" parent="1">
          <mxGeometry x="840" y="590" width="160" height="40" as="geometry" />
        </mxCell>
        <mxCell id="0VWRR3ivwJFSbnxhWq9w-79" value="0" style="rounded=1;whiteSpace=wrap;html=1;fontFamily=Times New Roman;fontSize=20;" vertex="1" parent="1">
          <mxGeometry x="762" y="190" width="40" height="40" as="geometry" />
        </mxCell>
        <mxCell id="0VWRR3ivwJFSbnxhWq9w-80" value="0为写入" style="text;html=1;strokeColor=none;fillColor=none;align=center;verticalAlign=middle;whiteSpace=wrap;rounded=0;fontFamily=Times New Roman;fontSize=20;" vertex="1" parent="1">
          <mxGeometry x="762" y="150" width="119" height="40" as="geometry" />
        </mxCell>
        <mxCell id="0VWRR3ivwJFSbnxhWq9w-81" value="1" style="rounded=1;whiteSpace=wrap;html=1;fontFamily=Times New Roman;fontSize=20;" vertex="1" parent="1">
          <mxGeometry x="921.5" y="190" width="40" height="40" as="geometry" />
        </mxCell>
        <mxCell id="0VWRR3ivwJFSbnxhWq9w-82" value="1为读出" style="text;html=1;strokeColor=none;fillColor=none;align=center;verticalAlign=middle;whiteSpace=wrap;rounded=0;fontFamily=Times New Roman;fontSize=20;" vertex="1" parent="1">
          <mxGeometry x="921.5" y="150" width="119" height="40" as="geometry" />
        </mxCell>
        <mxCell id="0VWRR3ivwJFSbnxhWq9w-83" value="S" style="rounded=1;whiteSpace=wrap;html=1;fontFamily=Times New Roman;fontSize=20;fillColor=#f8cecc;strokeColor=#b85450;" vertex="1" parent="1">
          <mxGeometry x="77" y="677" width="40" height="40" as="geometry" />
        </mxCell>
        <mxCell id="0VWRR3ivwJFSbnxhWq9w-84" value="addr:&amp;nbsp; 8&amp;nbsp; data: 8，singal read，多次读出，master应答后继续吐数据" style="text;html=1;strokeColor=none;fillColor=none;align=left;verticalAlign=middle;whiteSpace=wrap;rounded=0;fontFamily=Times New Roman;fontSize=20;" vertex="1" parent="1">
          <mxGeometry x="77" y="637" width="583" height="40" as="geometry" />
        </mxCell>
        <mxCell id="0VWRR3ivwJFSbnxhWq9w-85" value="device_id" style="rounded=1;whiteSpace=wrap;html=1;fontFamily=Times New Roman;fontSize=20;fillColor=#f8cecc;strokeColor=#b85450;" vertex="1" parent="1">
          <mxGeometry x="117" y="677" width="160" height="40" as="geometry" />
        </mxCell>
        <mxCell id="0VWRR3ivwJFSbnxhWq9w-86" value="7bit" style="text;html=1;strokeColor=none;fillColor=none;align=center;verticalAlign=middle;whiteSpace=wrap;rounded=0;fontFamily=Times New Roman;fontSize=20;" vertex="1" parent="1">
          <mxGeometry x="117" y="717" width="160" height="40" as="geometry" />
        </mxCell>
        <mxCell id="0VWRR3ivwJFSbnxhWq9w-87" value="0" style="rounded=1;whiteSpace=wrap;html=1;fontFamily=Times New Roman;fontSize=20;fillColor=#f8cecc;strokeColor=#b85450;" vertex="1" parent="1">
          <mxGeometry x="277" y="677" width="40" height="40" as="geometry" />
        </mxCell>
        <mxCell id="0VWRR3ivwJFSbnxhWq9w-88" value="1bit" style="text;html=1;strokeColor=none;fillColor=none;align=center;verticalAlign=middle;whiteSpace=wrap;rounded=0;fontFamily=Times New Roman;fontSize=20;" vertex="1" parent="1">
          <mxGeometry x="277" y="717" width="40" height="40" as="geometry" />
        </mxCell>
        <mxCell id="0VWRR3ivwJFSbnxhWq9w-89" value="A" style="rounded=1;whiteSpace=wrap;html=1;fontFamily=Times New Roman;fontSize=20;fillColor=#d5e8d4;strokeColor=#82b366;" vertex="1" parent="1">
          <mxGeometry x="317" y="677" width="40" height="40" as="geometry" />
        </mxCell>
        <mxCell id="0VWRR3ivwJFSbnxhWq9w-90" value="reg_addr" style="rounded=1;whiteSpace=wrap;html=1;fontFamily=Times New Roman;fontSize=20;fillColor=#f8cecc;strokeColor=#b85450;" vertex="1" parent="1">
          <mxGeometry x="357" y="677" width="160" height="40" as="geometry" />
        </mxCell>
        <mxCell id="0VWRR3ivwJFSbnxhWq9w-91" value="8bit" style="text;html=1;strokeColor=none;fillColor=none;align=center;verticalAlign=middle;whiteSpace=wrap;rounded=0;fontFamily=Times New Roman;fontSize=20;" vertex="1" parent="1">
          <mxGeometry x="357" y="717" width="160" height="40" as="geometry" />
        </mxCell>
        <mxCell id="0VWRR3ivwJFSbnxhWq9w-92" value="1bit" style="text;html=1;strokeColor=none;fillColor=none;align=center;verticalAlign=middle;whiteSpace=wrap;rounded=0;fontFamily=Times New Roman;fontSize=20;" vertex="1" parent="1">
          <mxGeometry x="317" y="717" width="40" height="40" as="geometry" />
        </mxCell>
        <mxCell id="0VWRR3ivwJFSbnxhWq9w-93" value="A" style="rounded=1;whiteSpace=wrap;html=1;fontFamily=Times New Roman;fontSize=20;fillColor=#d5e8d4;strokeColor=#82b366;" vertex="1" parent="1">
          <mxGeometry x="517" y="677" width="40" height="40" as="geometry" />
        </mxCell>
        <mxCell id="0VWRR3ivwJFSbnxhWq9w-94" value="1bit" style="text;html=1;strokeColor=none;fillColor=none;align=center;verticalAlign=middle;whiteSpace=wrap;rounded=0;fontFamily=Times New Roman;fontSize=20;" vertex="1" parent="1">
          <mxGeometry x="517" y="717" width="40" height="40" as="geometry" />
        </mxCell>
        <mxCell id="0VWRR3ivwJFSbnxhWq9w-95" value="A" style="rounded=1;whiteSpace=wrap;html=1;fontFamily=Times New Roman;fontSize=20;fillColor=#f8cecc;strokeColor=#b85450;" vertex="1" parent="1">
          <mxGeometry x="996" y="677" width="40" height="40" as="geometry" />
        </mxCell>
        <mxCell id="0VWRR3ivwJFSbnxhWq9w-96" value="E" style="rounded=1;whiteSpace=wrap;html=1;fontFamily=Times New Roman;fontSize=20;fillColor=#f8cecc;strokeColor=#b85450;" vertex="1" parent="1">
          <mxGeometry x="1400" y="677" width="40" height="40" as="geometry" />
        </mxCell>
        <mxCell id="0VWRR3ivwJFSbnxhWq9w-97" value="S" style="rounded=1;whiteSpace=wrap;html=1;fontFamily=Times New Roman;fontSize=20;fillColor=#f8cecc;strokeColor=#b85450;" vertex="1" parent="1">
          <mxGeometry x="557" y="677" width="40" height="40" as="geometry" />
        </mxCell>
        <mxCell id="0VWRR3ivwJFSbnxhWq9w-98" value="device_id" style="rounded=1;whiteSpace=wrap;html=1;fontFamily=Times New Roman;fontSize=20;fillColor=#f8cecc;strokeColor=#b85450;" vertex="1" parent="1">
          <mxGeometry x="597" y="677" width="160" height="40" as="geometry" />
        </mxCell>
        <mxCell id="0VWRR3ivwJFSbnxhWq9w-99" value="7bit" style="text;html=1;strokeColor=none;fillColor=none;align=center;verticalAlign=middle;whiteSpace=wrap;rounded=0;fontFamily=Times New Roman;fontSize=20;" vertex="1" parent="1">
          <mxGeometry x="597" y="717" width="160" height="40" as="geometry" />
        </mxCell>
        <mxCell id="0VWRR3ivwJFSbnxhWq9w-100" value="1" style="rounded=1;whiteSpace=wrap;html=1;fontFamily=Times New Roman;fontSize=20;fillColor=#f8cecc;strokeColor=#b85450;" vertex="1" parent="1">
          <mxGeometry x="757" y="677" width="40" height="40" as="geometry" />
        </mxCell>
        <mxCell id="0VWRR3ivwJFSbnxhWq9w-101" value="1bit" style="text;html=1;strokeColor=none;fillColor=none;align=center;verticalAlign=middle;whiteSpace=wrap;rounded=0;fontFamily=Times New Roman;fontSize=20;" vertex="1" parent="1">
          <mxGeometry x="757" y="717" width="40" height="40" as="geometry" />
        </mxCell>
        <mxCell id="0VWRR3ivwJFSbnxhWq9w-102" value="A" style="rounded=1;whiteSpace=wrap;html=1;fontFamily=Times New Roman;fontSize=20;fillColor=#d5e8d4;strokeColor=#82b366;" vertex="1" parent="1">
          <mxGeometry x="796" y="677" width="40" height="40" as="geometry" />
        </mxCell>
        <mxCell id="0VWRR3ivwJFSbnxhWq9w-103" value="1bit" style="text;html=1;strokeColor=none;fillColor=none;align=center;verticalAlign=middle;whiteSpace=wrap;rounded=0;fontFamily=Times New Roman;fontSize=20;" vertex="1" parent="1">
          <mxGeometry x="796" y="717" width="40" height="40" as="geometry" />
        </mxCell>
        <mxCell id="0VWRR3ivwJFSbnxhWq9w-104" value="data" style="rounded=1;whiteSpace=wrap;html=1;fontFamily=Times New Roman;fontSize=20;fillColor=#d5e8d4;strokeColor=#82b366;" vertex="1" parent="1">
          <mxGeometry x="836" y="677" width="160" height="40" as="geometry" />
        </mxCell>
        <mxCell id="0VWRR3ivwJFSbnxhWq9w-105" value="8bit" style="text;html=1;strokeColor=none;fillColor=none;align=center;verticalAlign=middle;whiteSpace=wrap;rounded=0;fontFamily=Times New Roman;fontSize=20;" vertex="1" parent="1">
          <mxGeometry x="836" y="717" width="160" height="40" as="geometry" />
        </mxCell>
        <mxCell id="0VWRR3ivwJFSbnxhWq9w-106" value="A" style="rounded=1;whiteSpace=wrap;html=1;fontFamily=Times New Roman;fontSize=20;fillColor=#f8cecc;strokeColor=#b85450;" vertex="1" parent="1">
          <mxGeometry x="1280" y="677" width="40" height="40" as="geometry" />
        </mxCell>
        <mxCell id="0VWRR3ivwJFSbnxhWq9w-107" value="data" style="rounded=1;whiteSpace=wrap;html=1;fontFamily=Times New Roman;fontSize=20;fillColor=#d5e8d4;strokeColor=#82b366;" vertex="1" parent="1">
          <mxGeometry x="1120" y="677" width="160" height="40" as="geometry" />
        </mxCell>
        <mxCell id="0VWRR3ivwJFSbnxhWq9w-108" value="" style="endArrow=none;dashed=1;html=1;rounded=0;exitX=1;exitY=0;exitDx=0;exitDy=0;entryX=0;entryY=0;entryDx=0;entryDy=0;" edge="1" parent="1">
          <mxGeometry width="50" height="50" relative="1" as="geometry">
            <mxPoint x="1040" y="677" as="sourcePoint" />
            <mxPoint x="1120" y="677" as="targetPoint" />
          </mxGeometry>
        </mxCell>
        <mxCell id="0VWRR3ivwJFSbnxhWq9w-109" value="" style="endArrow=none;dashed=1;html=1;rounded=0;exitX=1;exitY=0;exitDx=0;exitDy=0;entryX=0;entryY=0;entryDx=0;entryDy=0;" edge="1" parent="1">
          <mxGeometry width="50" height="50" relative="1" as="geometry">
            <mxPoint x="1040" y="716" as="sourcePoint" />
            <mxPoint x="1120" y="716" as="targetPoint" />
          </mxGeometry>
        </mxCell>
        <mxCell id="0VWRR3ivwJFSbnxhWq9w-110" value="" style="endArrow=none;dashed=1;html=1;rounded=0;exitX=1;exitY=0;exitDx=0;exitDy=0;entryX=0;entryY=0;entryDx=0;entryDy=0;" edge="1" parent="1">
          <mxGeometry width="50" height="50" relative="1" as="geometry">
            <mxPoint x="1320" y="677" as="sourcePoint" />
            <mxPoint x="1400" y="677" as="targetPoint" />
          </mxGeometry>
        </mxCell>
        <mxCell id="0VWRR3ivwJFSbnxhWq9w-111" value="" style="endArrow=none;dashed=1;html=1;rounded=0;exitX=1;exitY=0;exitDx=0;exitDy=0;entryX=0;entryY=0;entryDx=0;entryDy=0;" edge="1" parent="1">
          <mxGeometry width="50" height="50" relative="1" as="geometry">
            <mxPoint x="1320" y="716" as="sourcePoint" />
            <mxPoint x="1400" y="716" as="targetPoint" />
          </mxGeometry>
        </mxCell>
        <mxCell id="0VWRR3ivwJFSbnxhWq9w-112" value="8bit" style="text;html=1;strokeColor=none;fillColor=none;align=center;verticalAlign=middle;whiteSpace=wrap;rounded=0;fontFamily=Times New Roman;fontSize=20;" vertex="1" parent="1">
          <mxGeometry x="1120" y="717" width="160" height="40" as="geometry" />
        </mxCell>
        <mxCell id="0VWRR3ivwJFSbnxhWq9w-113" value="1bit" style="text;html=1;strokeColor=none;fillColor=none;align=center;verticalAlign=middle;whiteSpace=wrap;rounded=0;fontFamily=Times New Roman;fontSize=20;" vertex="1" parent="1">
          <mxGeometry x="1280" y="717" width="40" height="40" as="geometry" />
        </mxCell>
        <mxCell id="0VWRR3ivwJFSbnxhWq9w-114" value="1A" style="rounded=1;whiteSpace=wrap;html=1;fontFamily=Times New Roman;fontSize=20;" vertex="1" parent="1">
          <mxGeometry x="560" y="192" width="40" height="40" as="geometry" />
        </mxCell>
        <mxCell id="0VWRR3ivwJFSbnxhWq9w-115" value="1A为不应答" style="text;html=1;strokeColor=none;fillColor=none;align=center;verticalAlign=middle;whiteSpace=wrap;rounded=0;fontFamily=Times New Roman;fontSize=20;" vertex="1" parent="1">
          <mxGeometry x="560" y="152" width="200" height="40" as="geometry" />
        </mxCell>
      </root>
    </mxGraphModel>
  </diagram>
</mxfile>
